<svg width="31.143" height="31.143" xmlns="http://www.w3.org/2000/svg" xml:space="preserve" version="1.1">

 <g>
  <title>Layer 1</title>
  <g transform="rotate(-180 15.5713 15.5712)" id="svg_1">
   <g id="c100_arrow">
    <path id="svg_2" d="m0,15.571c0.001,1.702 1.383,3.081 3.085,3.083l17.528,-0.002l-4.738,4.739c-1.283,1.284 -1.349,3.301 -0.145,4.507c1.205,1.201 3.222,1.138 4.507,-0.146l9.896,-9.898c1.287,-1.283 1.352,-3.301 0.146,-4.506c-0.033,-0.029 -0.068,-0.051 -0.1,-0.08c-0.041,-0.043 -0.07,-0.094 -0.113,-0.139l-9.764,-9.762c-1.268,-1.266 -3.27,-1.316 -4.474,-0.111c-1.205,1.205 -1.153,3.208 0.111,4.476l4.755,4.754l-17.609,0c-1.704,-0.001 -3.085,1.379 -3.085,3.085z"/>
   </g>
   <g id="Capa_1_46_"/>
  </g>
  <g id="svg_3"/>
  <g id="svg_4"/>
  <g id="svg_5"/>
  <g id="svg_6"/>
  <g id="svg_7"/>
  <g id="svg_8"/>
  <g id="svg_9"/>
  <g id="svg_10"/>
  <g id="svg_11"/>
  <g id="svg_12"/>
  <g id="svg_13"/>
  <g id="svg_14"/>
  <g id="svg_15"/>
  <g id="svg_16"/>
  <g id="svg_17"/>
 </g>
</svg>