<svg width="116" height="46" viewBox="0 0 116 46" fill="none" xmlns="http://www.w3.org/2000/svg">
<path d="M65.0781 45.7812C62.0027 45.7812 59.5 44.4563 59.5 42.8281V3.45312C59.5 1.82497 62.0027 0.5 65.0781 0.5C68.1535 0.5 70.6562 1.82497 70.6562 3.45312V42.8281C70.6562 44.4563 68.1535 45.7812 65.0781 45.7812ZM35.3281 41.8438C32.2527 41.8438 29.75 40.5188 29.75 38.8906V7.39062C29.75 5.76247 32.2527 4.4375 35.3281 4.4375C38.4035 4.4375 40.9062 5.76247 40.9062 7.39062V38.8906C40.9062 40.5188 38.4035 41.8438 35.3281 41.8438ZM79.9531 35.9375C76.8777 35.9375 74.375 34.6125 74.375 32.9844V13.2969C74.375 11.6687 76.8777 10.3438 79.9531 10.3438C83.0285 10.3438 85.5312 11.6687 85.5312 13.2969V32.9844C85.5312 34.6125 83.0285 35.9375 79.9531 35.9375ZM50.2031 35.9375C47.1277 35.9375 44.625 34.6125 44.625 32.9844V13.2969C44.625 11.6687 47.1277 10.3438 50.2031 10.3438C53.2785 10.3438 55.7812 11.6687 55.7812 13.2969V32.9844C55.7812 34.6125 53.2785 35.9375 50.2031 35.9375ZM20.4531 33.9688C17.3777 33.9688 14.875 32.6438 14.875 31.0156V15.2656C14.875 13.6375 17.3777 12.3125 20.4531 12.3125C23.5285 12.3125 26.0312 13.6375 26.0312 15.2656V31.0156C26.0312 32.6438 23.5285 33.9688 20.4531 33.9688ZM109.703 32C106.628 32 104.125 30.675 104.125 29.0469V17.2344C104.125 15.6062 106.628 14.2812 109.703 14.2812C112.779 14.2812 115.281 15.6062 115.281 17.2344V29.0469C115.281 30.675 112.779 32 109.703 32ZM94.8281 30.0312C91.7527 30.0312 89.25 28.7063 89.25 27.0781V19.2031C89.25 17.575 91.7527 16.25 94.8281 16.25C97.9035 16.25 100.406 17.575 100.406 19.2031V27.0781C100.406 28.7063 97.9035 30.0312 94.8281 30.0312ZM5.57812 28.0625C2.50272 28.0625 0 26.7375 0 25.1094V21.1719C0 19.5437 2.50272 18.2188 5.57812 18.2188C8.65353 18.2188 11.1562 19.5437 11.1562 21.1719V25.1094C11.1562 26.7375 8.65353 28.0625 5.57812 28.0625Z" fill="#0B1719"/>
</svg>
