<?xml version="1.0" encoding="iso-8859-1"?>
<!-- Generator: Adobe Illustrator 19.0.0, SVG Export Plug-In . SVG Version: 6.00 Build 0)  -->
<svg version="1.1" id="Layer_1" xmlns="http://www.w3.org/2000/svg" xmlns:xlink="http://www.w3.org/1999/xlink" x="0px" y="0px"
	 viewBox="0 0 504.832 504.832" style="enable-background:new 0 0 504.832 504.832;" xml:space="preserve">
<g transform="translate(1 5)">
	<polygon style="fill:#AAB1BA;" points="3.693,340.901 157.293,494.501 225.56,426.234 71.96,272.634 	"/>
	<path style="fill:#80D6FA;" d="M455.96,383.567c15.36,15.36,8.533,42.667-8.533,42.667H225.56l-153.6-153.6V50.767
		c0-17.067,27.307-23.893,42.667-8.533L455.96,383.567z"/>
</g>
<path style="fill:#51565F;" d="M158.293,503.767c-0.853,0-2.56,0-3.413-0.853l-153.6-153.6c-1.707-1.707-1.707-4.267,0-5.973
	l42.667-42.667c1.707-1.707,4.267-1.707,5.973,0c1.707,1.707,1.707,4.267,0,5.973l-39.253,39.253l147.627,147.627l64.853-64.853
	c0.853-0.853,1.707-0.853,3.413-0.853h221.867c6.827,0,10.24-5.973,11.093-8.533c2.56-6.827,2.56-18.773-5.973-26.453L112.214,51.5
	c-7.68-7.68-19.627-8.533-26.453-5.12c-2.56,0.853-8.533,4.267-8.533,11.093v220.16L204.374,404.78c1.707,1.707,1.707,4.267,0,5.973
	c-1.707,1.707-4.267,1.707-5.973,0l-128-128c-0.853-0.853-0.853-1.707-0.853-3.413V57.474c0-8.533,5.12-15.36,13.653-18.773
	c9.387-4.267,25.6-3.413,35.84,7.68l341.333,341.333c11.093,11.093,11.947,25.6,7.68,35.84
	c-3.413,8.533-11.093,13.653-18.773,13.653H229.12l-67.413,67.413C160.853,503.767,159.147,503.767,158.293,503.767z
	 M448.427,230.701L448.427,230.701c-2.56,0-4.267-1.707-4.267-4.267c1.707-45.227-15.36-89.6-46.08-120.32
	c-29.867-29.867-74.24-46.933-120.32-46.08c-2.56,0-4.267-1.707-4.267-4.267s1.707-4.267,4.267-4.267
	c48.64-0.853,94.72,17.067,126.293,48.64c32.427,32.427,50.347,78.507,48.64,126.293
	C452.693,228.994,450.987,230.701,448.427,230.701z M397.227,230.701c-2.56,0-4.267-1.707-4.267-4.267
	c0-19.627-4.267-57.173-31.573-83.627c-27.307-27.307-64-31.573-83.627-31.573c-2.56,0-4.267-1.707-4.267-4.267
	c0-2.56,1.707-4.267,4.267-4.267c21.333,0,60.587,4.267,90.453,33.28c29.013,29.013,33.28,69.12,33.28,90.453
	C401.493,228.994,399.787,230.701,397.227,230.701z M499.627,230.701L499.627,230.701c-2.56,0-4.267-1.707-4.267-4.267
	c1.707-58.88-20.48-116.053-61.44-156.16c-40.96-40.107-97.28-63.147-156.16-61.44c-2.56,0-4.267-1.707-4.267-4.267
	s1.707-4.267,4.267-4.267c60.587-1.707,120.32,21.333,162.987,64c41.813,41.813,65.707,101.547,64,162.987
	C503.893,228.994,502.187,230.701,499.627,230.701z"/>
<g>
</g>
<g>
</g>
<g>
</g>
<g>
</g>
<g>
</g>
<g>
</g>
<g>
</g>
<g>
</g>
<g>
</g>
<g>
</g>
<g>
</g>
<g>
</g>
<g>
</g>
<g>
</g>
<g>
</g>
</svg>
