<?xml version="1.0" encoding="iso-8859-1"?>
<!-- Generator: Adobe Illustrator 19.0.0, SVG Export Plug-In . SVG Version: 6.00 Build 0)  -->
<svg version="1.1" id="Layer_1" xmlns="http://www.w3.org/2000/svg" xmlns:xlink="http://www.w3.org/1999/xlink" x="0px" y="0px"
	 viewBox="0 0 512 512" style="enable-background:new 0 0 512 512;" xml:space="preserve">
<path style="fill:#4A5058;" d="M138.27,166.275H21.409C9.586,166.275,0,175.861,0,187.685v136.631
	c0,11.825,9.586,21.409,21.409,21.409h116.859v-179.45H138.27z"/>
<rect x="54.807" y="166.271" style="fill:#E45D4C;" width="28.652" height="179.449"/>
<path style="fill:#7E858B;" d="M294.098,59.176l-155.828,107.1v179.45l155.828,107.1c7.909,5.436,18.672-0.226,18.672-9.823V68.999
	C312.769,59.402,302.007,53.739,294.098,59.176z"/>
<g>
	<path style="fill:#F5DF5D;" d="M423.128,436.881c-2.371,0-4.724-1.007-6.367-2.965c-2.954-3.514-2.499-8.757,1.015-11.711
		c49.316-41.447,77.6-102.026,77.6-166.2c0-64.175-28.284-124.754-77.6-166.201c-3.514-2.954-3.969-8.197-1.015-11.712
		c2.953-3.516,8.197-3.97,11.711-1.015C481.554,121.692,512,186.909,512,256.006c0,69.096-30.446,134.313-83.529,178.926
		C426.914,436.242,425.015,436.881,423.128,436.881z"/>
	<path style="fill:#F5DF5D;" d="M386.315,393.009c-2.371,0-4.724-1.007-6.367-2.965c-2.954-3.514-2.499-8.757,1.015-11.711
		c36.299-30.508,57.117-75.096,57.117-122.328s-20.819-91.82-57.117-122.329c-3.514-2.954-3.969-8.197-1.015-11.711
		c2.954-3.517,8.198-3.969,11.711-1.015c40.067,33.676,63.047,82.901,63.047,135.056s-22.979,101.379-63.047,135.055
		C390.101,392.37,388.202,393.009,386.315,393.009z"/>
	<path style="fill:#F5DF5D;" d="M349.533,349.176c-2.372,0-4.725-1.009-6.37-2.966c-2.953-3.516-2.496-8.759,1.019-11.712
		c23.26-19.538,36.601-48.147,36.601-78.493s-13.341-58.956-36.601-78.494c-3.514-2.953-3.971-8.196-1.019-11.712
		c2.953-3.513,8.196-3.97,11.712-1.019c27.031,22.705,42.533,55.955,42.533,91.225c0,35.269-15.502,68.518-42.533,91.224
		C353.318,348.538,351.421,349.176,349.533,349.176z"/>
</g>
<path style="opacity:0.2;enable-background:new    ;" d="M307.836,439.087L156.819,335.293c-3.133-2.153-6.846-3.306-10.649-3.306
	H35.148c-11.825,0-21.409-9.586-21.409-21.409V173.947c0-2.311,0.377-4.532,1.054-6.618C6.209,170.119,0,178.172,0,187.685v136.631
	c0,11.825,9.586,21.409,21.409,21.409h116.859l155.828,107.1c7.909,5.436,18.672-0.226,18.672-9.823v-1.941
	C311.083,440.8,309.404,440.165,307.836,439.087z"/>
<g>
</g>
<g>
</g>
<g>
</g>
<g>
</g>
<g>
</g>
<g>
</g>
<g>
</g>
<g>
</g>
<g>
</g>
<g>
</g>
<g>
</g>
<g>
</g>
<g>
</g>
<g>
</g>
<g>
</g>
</svg>
