<?xml version="1.0" encoding="iso-8859-1"?>
<!-- Generator: Adobe Illustrator 19.0.0, SVG Export Plug-In . SVG Version: 6.00 Build 0)  -->
<svg version="1.1" id="Layer_1" xmlns="http://www.w3.org/2000/svg" xmlns:xlink="http://www.w3.org/1999/xlink" x="0px" y="0px"
	 viewBox="0 0 512 512" style="enable-background:new 0 0 512 512;" xml:space="preserve">
<path style="fill:#FFCA12;" d="M165.37,389.199H62.038c-22.562,0-40.852-18.29-40.852-40.852V161.593
	c0-22.562,18.29-40.852,40.852-40.852H165.37V389.199z"/>
<polygon style="fill:#6ED3FF;" points="165.37,389.199 490.815,501.8 490.815,10.198 165.37,120.741 "/>
<path d="M496.756,1.909c-2.674-1.915-6.107-2.424-9.22-1.367L163.685,110.541H62.037c-28.151,0-51.052,22.901-51.052,51.051v186.754
	c0,28.15,22.901,51.051,51.052,51.051h101.619l323.826,112.042c1.086,0.376,2.213,0.561,3.334,0.561
	c2.095,0,4.167-0.645,5.918-1.891c2.688-1.913,4.283-5.009,4.283-8.308V10.198C501.016,6.91,499.43,3.823,496.756,1.909z
	 M31.384,348.347v-15.549h37.863c5.632,0,10.199-4.566,10.199-10.199S74.879,312.4,69.247,312.4H31.384v-46.201h37.863
	c5.632,0,10.199-4.566,10.199-10.199c0-5.633-4.567-10.199-10.199-10.199H31.384v-48.261h37.863c5.632,0,10.199-4.566,10.199-10.199
	s-4.567-10.199-10.199-10.199H31.384v-15.549c0-16.902,13.751-30.653,30.654-30.653h93.133V379H62.037
	C45.135,379,31.384,365.249,31.384,348.347z M480.617,487.479L175.569,381.936V128.048L480.617,24.435L480.617,487.479
	L480.617,487.479z"/>
<path d="M250.986,140.751c1.087,0,2.194-0.175,3.281-0.545l154.697-52.545c5.333-1.811,8.189-7.605,6.378-12.938
	c-1.81-5.333-7.606-8.187-12.938-6.377l-154.697,52.545c-5.333,1.811-8.189,7.605-6.378,12.938
	C242.772,138.076,246.737,140.751,250.986,140.751z"/>
<path d="M440.485,76.385c1.087,0,2.194-0.175,3.281-0.545l12.358-4.197c5.333-1.811,8.189-7.604,6.378-12.938
	c-1.81-5.333-7.603-8.188-12.938-6.378l-12.358,4.197c-5.333,1.811-8.189,7.604-6.378,12.938
	C432.271,73.71,436.236,76.385,440.485,76.385z"/>
<g>
</g>
<g>
</g>
<g>
</g>
<g>
</g>
<g>
</g>
<g>
</g>
<g>
</g>
<g>
</g>
<g>
</g>
<g>
</g>
<g>
</g>
<g>
</g>
<g>
</g>
<g>
</g>
<g>
</g>
</svg>
